<svg xmlns="http://www.w3.org/2000/svg" width="16" height="16" viewBox="0 0 16 16">
  <g id="Group_43908" data-name="Group 43908" transform="translate(16.051 16) rotate(180)">
    <rect id="Rectangle_6358" data-name="Rectangle 6358" width="16" height="16" transform="translate(0.051 0)" fill="none"/>
    <path id="Path_13321" data-name="Path 13321" d="M3.959,0a.371.371,0,0,0-.264.111L.11,3.733a.381.381,0,0,0,0,.534L3.695,7.889a.371.371,0,0,0,.529,0,.381.381,0,0,0,0-.534L.9,4,4.224.645a.381.381,0,0,0,0-.534A.371.371,0,0,0,3.959,0Z" transform="translate(11.507 5.622) rotate(90)" fill="#6d747f"/>
  </g>
</svg>
